<svg aria-roledescription="er" role="graphics-document document" viewBox="0 0 634.4488525390625 452" style="max-width: 634.449px; background-color: white;" xmlns:xlink="http://www.w3.org/1999/xlink" xmlns="http://www.w3.org/2000/svg" width="100%" id="my-svg"><style>#my-svg{font-family:"trebuchet ms",verdana,arial,sans-serif;font-size:16px;fill:#000000;}#my-svg .error-icon{fill:#552222;}#my-svg .error-text{fill:#552222;stroke:#552222;}#my-svg .edge-thickness-normal{stroke-width:2px;}#my-svg .edge-thickness-thick{stroke-width:3.5px;}#my-svg .edge-pattern-solid{stroke-dasharray:0;}#my-svg .edge-pattern-dashed{stroke-dasharray:3;}#my-svg .edge-pattern-dotted{stroke-dasharray:2;}#my-svg .marker{fill:#000000;stroke:#000000;}#my-svg .marker.cross{stroke:#000000;}#my-svg svg{font-family:"trebuchet ms",verdana,arial,sans-serif;font-size:16px;}#my-svg .entityBox{fill:#cde498;stroke:#13540c;}#my-svg .attributeBoxOdd{fill:#ffffff;stroke:#13540c;}#my-svg .attributeBoxEven{fill:#f2f2f2;stroke:#13540c;}#my-svg .relationshipLabelBox{fill:hsl(78.1578947368, 58.4615384615%, 84.5098039216%);opacity:0.7;background-color:hsl(78.1578947368, 58.4615384615%, 84.5098039216%);}#my-svg .relationshipLabelBox rect{opacity:0.5;}#my-svg .relationshipLine{stroke:#000000;}#my-svg .entityTitleText{text-anchor:middle;font-size:18px;fill:#000000;}#my-svg #MD_PARENT_START{fill:#f5f5f5!important;stroke:#000000!important;stroke-width:1;}#my-svg #MD_PARENT_END{fill:#f5f5f5!important;stroke:#000000!important;stroke-width:1;}#my-svg :root{--mermaid-font-family:"trebuchet ms",verdana,arial,sans-serif;}</style><g/><defs><marker orient="auto" markerHeight="240" markerWidth="190" refY="7" refX="0" id="MD_PARENT_START"><path d="M 18,7 L9,13 L1,7 L9,1 Z"/></marker></defs><defs><marker orient="auto" markerHeight="28" markerWidth="20" refY="7" refX="19" id="MD_PARENT_END"><path d="M 18,7 L9,13 L1,7 L9,1 Z"/></marker></defs><defs><marker orient="auto" markerHeight="18" markerWidth="18" refY="9" refX="0" id="ONLY_ONE_START"><path d="M9,0 L9,18 M15,0 L15,18" fill="none" stroke="gray"/></marker></defs><defs><marker orient="auto" markerHeight="18" markerWidth="18" refY="9" refX="18" id="ONLY_ONE_END"><path d="M3,0 L3,18 M9,0 L9,18" fill="none" stroke="gray"/></marker></defs><defs><marker orient="auto" markerHeight="18" markerWidth="30" refY="9" refX="0" id="ZERO_OR_ONE_START"><circle r="6" cy="9" cx="21" fill="white" stroke="gray"/><path d="M9,0 L9,18" fill="none" stroke="gray"/></marker></defs><defs><marker orient="auto" markerHeight="18" markerWidth="30" refY="9" refX="30" id="ZERO_OR_ONE_END"><circle r="6" cy="9" cx="9" fill="white" stroke="gray"/><path d="M21,0 L21,18" fill="none" stroke="gray"/></marker></defs><defs><marker orient="auto" markerHeight="36" markerWidth="45" refY="18" refX="18" id="ONE_OR_MORE_START"><path d="M0,18 Q 18,0 36,18 Q 18,36 0,18 M42,9 L42,27" fill="none" stroke="gray"/></marker></defs><defs><marker orient="auto" markerHeight="36" markerWidth="45" refY="18" refX="27" id="ONE_OR_MORE_END"><path d="M3,9 L3,27 M9,18 Q27,0 45,18 Q27,36 9,18" fill="none" stroke="gray"/></marker></defs><defs><marker orient="auto" markerHeight="36" markerWidth="57" refY="18" refX="18" id="ZERO_OR_MORE_START"><circle r="6" cy="18" cx="48" fill="white" stroke="gray"/><path d="M0,18 Q18,0 36,18 Q18,36 0,18" fill="none" stroke="gray"/></marker></defs><defs><marker orient="auto" markerHeight="36" markerWidth="57" refY="18" refX="39" id="ZERO_OR_MORE_END"><circle r="6" cy="18" cx="9" fill="white" stroke="gray"/><path d="M21,18 Q39,0 57,18 Q39,36 21,18" fill="none" stroke="gray"/></marker></defs><path style="stroke: gray; fill: none;" marker-start="url(#ZERO_OR_ONE_START)" marker-end="url(#ONLY_ONE_END)" d="M316.6492614746094,123.09900544173468L276.82544962565106,140.24917120144556C237.00163777669272,157.39933696115645,157.35401407877603,191.69966848057823,117.5302022298177,222.68316757362246C77.70639038085938,253.66666666666666,77.70639038085938,281.3333333333333,77.70639038085938,295.1666666666667L77.70639038085938,309" class="er relationshipLine"/><path style="stroke: gray; fill: none;" marker-start="url(#ZERO_OR_MORE_START)" marker-end="url(#ZERO_OR_MORE_END)" d="M316.6492614746094,153.88389775164927L304.1142330169678,165.9032481263744C291.5792045593262,177.92259850109951,266.50914764404297,201.96129925054979,258.1233835319678,222.31398295860822C249.73761941989264,242.66666666666666,258.0361481110255,259.3333333333333,262.1854124565919,267.6666666666667L266.33467680215836,276" class="er relationshipLine"/><path style="stroke: gray; fill: none;" marker-start="url(#ZERO_OR_MORE_START)" marker-end="url(#ZERO_OR_MORE_END)" d="M433.21234130859375,172.60037109375L440.16541798909503,181.50030924479165C447.1184946695964,190.40024739583336,461.02464803059894,208.20012369791667,472.5193269451459,225.43339518229166C484.0140058596929,242.66666666666666,493.09721032778424,259.3333333333333,497.63881256182987,267.6666666666667L502.18041479587555,276" class="er relationshipLine"/><path style="stroke: gray; fill: none;" marker-start="url(#ZERO_OR_ONE_START)" marker-end="url(#ONLY_ONE_END)" d="M575.158561706543,276L578.4137700398763,267.6666666666667C581.6689783732096,259.3333333333333,588.1793950398763,242.66666666666666,564.5216916402181,218.65774079728203C540.8639882405599,194.6488149278974,487.03816477457684,163.29762985579478,460.12525304158527,147.6220373197435L433.21234130859375,131.9464447836922" class="er relationshipLine"/><path style="stroke: gray; fill: none;" marker-start="url(#ZERO_OR_ONE_START)" marker-end="url(#ONLY_ONE_END)" d="M347.6811879873276,276L352.22279022137326,267.6666666666667C356.7643924554189,259.3333333333333,365.84759692351025,242.66666666666666,370.3891991575559,226C374.93080139160156,209.33333333333334,374.93080139160156,192.66666666666666,374.93080139160156,184.33333333333334L374.93080139160156,176" class="er relationshipLine"/><g transform="translate(20,309 )" id="entity-Role-8dbdbbc4-0419-5464-aae6-f142fb2ece67"><rect height="90" width="115.41278076171875" y="0" x="0" class="er entityBox"/><text style="dominant-baseline: middle; text-anchor: middle; font-size: 12px;" transform="translate(57.706390380859375,12)" y="0" x="0" id="text-entity-Role-8dbdbbc4-0419-5464-aae6-f142fb2ece67" class="er entityLabel">Role</text><rect height="22" width="57.706390380859375" y="24" x="0" class="er attributeBoxOdd"/><text style="dominant-baseline: middle; font-size: 10.2px;" transform="translate(5,35)" y="0" x="0" id="text-entity-Role-8dbdbbc4-0419-5464-aae6-f142fb2ece67-attr-1-type" class="er entityLabel">USER</text><rect height="22" width="57.706390380859375" y="24" x="57.706390380859375" class="er attributeBoxOdd"/><text style="dominant-baseline: middle; font-size: 10.2px;" transform="translate(62.706390380859375,35)" y="0" x="0" id="text-entity-Role-8dbdbbc4-0419-5464-aae6-f142fb2ece67-attr-1-name" class="er entityLabel">USER</text><rect height="22" width="57.706390380859375" y="46" x="0" class="er attributeBoxEven"/><text style="dominant-baseline: middle; font-size: 10.2px;" transform="translate(5,57)" y="0" x="0" id="text-entity-Role-8dbdbbc4-0419-5464-aae6-f142fb2ece67-attr-2-type" class="er entityLabel">ADMIN</text><rect height="22" width="57.706390380859375" y="46" x="57.706390380859375" class="er attributeBoxEven"/><text style="dominant-baseline: middle; font-size: 10.2px;" transform="translate(62.706390380859375,57)" y="0" x="0" id="text-entity-Role-8dbdbbc4-0419-5464-aae6-f142fb2ece67-attr-2-name" class="er entityLabel">ADMIN</text><rect height="22" width="57.706390380859375" y="68" x="0" class="er attributeBoxOdd"/><text style="dominant-baseline: middle; font-size: 10.2px;" transform="translate(5,79)" y="0" x="0" id="text-entity-Role-8dbdbbc4-0419-5464-aae6-f142fb2ece67-attr-3-type" class="er entityLabel">EMPLOYEE</text><rect height="22" width="57.706390380859375" y="68" x="57.706390380859375" class="er attributeBoxOdd"/><text style="dominant-baseline: middle; font-size: 10.2px;" transform="translate(62.706390380859375,79)" y="0" x="0" id="text-entity-Role-8dbdbbc4-0419-5464-aae6-f142fb2ece67-attr-3-name" class="er entityLabel">EMPLOYEE</text></g><g transform="translate(316.6492614746094,20 )" id="entity-User-818c511a-4a32-5484-ba70-875d765a9175"><rect height="156" width="116.56307983398438" y="0" x="0" class="er entityBox"/><text style="dominant-baseline: middle; text-anchor: middle; font-size: 12px;" transform="translate(58.28153991699219,12)" y="0" x="0" id="text-entity-User-818c511a-4a32-5484-ba70-875d765a9175" class="er entityLabel">User</text><rect height="22" width="37.39605712890625" y="24" x="0" class="er attributeBoxOdd"/><text style="dominant-baseline: middle; font-size: 10.2px;" transform="translate(5,35)" y="0" x="0" id="text-entity-User-818c511a-4a32-5484-ba70-875d765a9175-attr-1-type" class="er entityLabel">Int</text><rect height="22" width="55.151397705078125" y="24" x="37.39605712890625" class="er attributeBoxOdd"/><text style="dominant-baseline: middle; font-size: 10.2px;" transform="translate(42.39605712890625,35)" y="0" x="0" id="text-entity-User-818c511a-4a32-5484-ba70-875d765a9175-attr-1-name" class="er entityLabel">id</text><rect height="22" width="24.015625" y="24" x="92.54745483398438" class="er attributeBoxOdd"/><text style="dominant-baseline: middle; font-size: 10.2px;" transform="translate(97.54745483398438,35)" y="0" x="0" id="text-entity-User-818c511a-4a32-5484-ba70-875d765a9175-attr-1-comment" class="er entityLabel">🗝️</text><rect height="22" width="37.39605712890625" y="46" x="0" class="er attributeBoxEven"/><text style="dominant-baseline: middle; font-size: 10.2px;" transform="translate(5,57)" y="0" x="0" id="text-entity-User-818c511a-4a32-5484-ba70-875d765a9175-attr-2-type" class="er entityLabel">String</text><rect height="22" width="55.151397705078125" y="46" x="37.39605712890625" class="er attributeBoxEven"/><text style="dominant-baseline: middle; font-size: 10.2px;" transform="translate(42.39605712890625,57)" y="0" x="0" id="text-entity-User-818c511a-4a32-5484-ba70-875d765a9175-attr-2-name" class="er entityLabel">email</text><rect height="22" width="24.015625" y="46" x="92.54745483398438" class="er attributeBoxEven"/><text style="dominant-baseline: middle; font-size: 10.2px;" transform="translate(97.54745483398438,57)" y="0" x="0" id="text-entity-User-818c511a-4a32-5484-ba70-875d765a9175-attr-2-comment" class="er entityLabel"/><rect height="22" width="37.39605712890625" y="68" x="0" class="er attributeBoxOdd"/><text style="dominant-baseline: middle; font-size: 10.2px;" transform="translate(5,79)" y="0" x="0" id="text-entity-User-818c511a-4a32-5484-ba70-875d765a9175-attr-3-type" class="er entityLabel">String</text><rect height="22" width="55.151397705078125" y="68" x="37.39605712890625" class="er attributeBoxOdd"/><text style="dominant-baseline: middle; font-size: 10.2px;" transform="translate(42.39605712890625,79)" y="0" x="0" id="text-entity-User-818c511a-4a32-5484-ba70-875d765a9175-attr-3-name" class="er entityLabel">firstName</text><rect height="22" width="24.015625" y="68" x="92.54745483398438" class="er attributeBoxOdd"/><text style="dominant-baseline: middle; font-size: 10.2px;" transform="translate(97.54745483398438,79)" y="0" x="0" id="text-entity-User-818c511a-4a32-5484-ba70-875d765a9175-attr-3-comment" class="er entityLabel"/><rect height="22" width="37.39605712890625" y="90" x="0" class="er attributeBoxEven"/><text style="dominant-baseline: middle; font-size: 10.2px;" transform="translate(5,101)" y="0" x="0" id="text-entity-User-818c511a-4a32-5484-ba70-875d765a9175-attr-4-type" class="er entityLabel">String</text><rect height="22" width="55.151397705078125" y="90" x="37.39605712890625" class="er attributeBoxEven"/><text style="dominant-baseline: middle; font-size: 10.2px;" transform="translate(42.39605712890625,101)" y="0" x="0" id="text-entity-User-818c511a-4a32-5484-ba70-875d765a9175-attr-4-name" class="er entityLabel">password</text><rect height="22" width="24.015625" y="90" x="92.54745483398438" class="er attributeBoxEven"/><text style="dominant-baseline: middle; font-size: 10.2px;" transform="translate(97.54745483398438,101)" y="0" x="0" id="text-entity-User-818c511a-4a32-5484-ba70-875d765a9175-attr-4-comment" class="er entityLabel"/><rect height="22" width="37.39605712890625" y="112" x="0" class="er attributeBoxOdd"/><text style="dominant-baseline: middle; font-size: 10.2px;" transform="translate(5,123)" y="0" x="0" id="text-entity-User-818c511a-4a32-5484-ba70-875d765a9175-attr-5-type" class="er entityLabel">String</text><rect height="22" width="55.151397705078125" y="112" x="37.39605712890625" class="er attributeBoxOdd"/><text style="dominant-baseline: middle; font-size: 10.2px;" transform="translate(42.39605712890625,123)" y="0" x="0" id="text-entity-User-818c511a-4a32-5484-ba70-875d765a9175-attr-5-name" class="er entityLabel">lastName</text><rect height="22" width="24.015625" y="112" x="92.54745483398438" class="er attributeBoxOdd"/><text style="dominant-baseline: middle; font-size: 10.2px;" transform="translate(97.54745483398438,123)" y="0" x="0" id="text-entity-User-818c511a-4a32-5484-ba70-875d765a9175-attr-5-comment" class="er entityLabel"/><rect height="22" width="37.39605712890625" y="134" x="0" class="er attributeBoxEven"/><text style="dominant-baseline: middle; font-size: 10.2px;" transform="translate(5,145)" y="0" x="0" id="text-entity-User-818c511a-4a32-5484-ba70-875d765a9175-attr-6-type" class="er entityLabel">Role</text><rect height="22" width="55.151397705078125" y="134" x="37.39605712890625" class="er attributeBoxEven"/><text style="dominant-baseline: middle; font-size: 10.2px;" transform="translate(42.39605712890625,145)" y="0" x="0" id="text-entity-User-818c511a-4a32-5484-ba70-875d765a9175-attr-6-name" class="er entityLabel">role</text><rect height="22" width="24.015625" y="134" x="92.54745483398438" class="er attributeBoxEven"/><text style="dominant-baseline: middle; font-size: 10.2px;" transform="translate(97.54745483398438,145)" y="0" x="0" id="text-entity-User-818c511a-4a32-5484-ba70-875d765a9175-attr-6-comment" class="er entityLabel"/></g><g transform="translate(474.93080139160156,276 )" id="entity-inputEvent-b2e3083e-e6bd-5221-a335-e18be2bb5495"><rect height="156" width="139.5180206298828" y="0" x="0" class="er entityBox"/><text style="dominant-baseline: middle; text-anchor: middle; font-size: 12px;" transform="translate(69.7590103149414,12)" y="0" x="0" id="text-entity-inputEvent-b2e3083e-e6bd-5221-a335-e18be2bb5495" class="er entityLabel">inputEvent</text><rect height="22" width="54.095550537109375" y="24" x="0" class="er attributeBoxOdd"/><text style="dominant-baseline: middle; font-size: 10.2px;" transform="translate(5,35)" y="0" x="0" id="text-entity-inputEvent-b2e3083e-e6bd-5221-a335-e18be2bb5495-attr-1-type" class="er entityLabel">Int</text><rect height="22" width="61.40684509277344" y="24" x="54.095550537109375" class="er attributeBoxOdd"/><text style="dominant-baseline: middle; font-size: 10.2px;" transform="translate(59.095550537109375,35)" y="0" x="0" id="text-entity-inputEvent-b2e3083e-e6bd-5221-a335-e18be2bb5495-attr-1-name" class="er entityLabel">id</text><rect height="22" width="24.015625" y="24" x="115.50239562988281" class="er attributeBoxOdd"/><text style="dominant-baseline: middle; font-size: 10.2px;" transform="translate(120.50239562988281,35)" y="0" x="0" id="text-entity-inputEvent-b2e3083e-e6bd-5221-a335-e18be2bb5495-attr-1-comment" class="er entityLabel">🗝️</text><rect height="22" width="54.095550537109375" y="46" x="0" class="er attributeBoxEven"/><text style="dominant-baseline: middle; font-size: 10.2px;" transform="translate(5,57)" y="0" x="0" id="text-entity-inputEvent-b2e3083e-e6bd-5221-a335-e18be2bb5495-attr-2-type" class="er entityLabel">String</text><rect height="22" width="61.40684509277344" y="46" x="54.095550537109375" class="er attributeBoxEven"/><text style="dominant-baseline: middle; font-size: 10.2px;" transform="translate(59.095550537109375,57)" y="0" x="0" id="text-entity-inputEvent-b2e3083e-e6bd-5221-a335-e18be2bb5495-attr-2-name" class="er entityLabel">title</text><rect height="22" width="24.015625" y="46" x="115.50239562988281" class="er attributeBoxEven"/><text style="dominant-baseline: middle; font-size: 10.2px;" transform="translate(120.50239562988281,57)" y="0" x="0" id="text-entity-inputEvent-b2e3083e-e6bd-5221-a335-e18be2bb5495-attr-2-comment" class="er entityLabel"/><rect height="22" width="54.095550537109375" y="68" x="0" class="er attributeBoxOdd"/><text style="dominant-baseline: middle; font-size: 10.2px;" transform="translate(5,79)" y="0" x="0" id="text-entity-inputEvent-b2e3083e-e6bd-5221-a335-e18be2bb5495-attr-3-type" class="er entityLabel">String</text><rect height="22" width="61.40684509277344" y="68" x="54.095550537109375" class="er attributeBoxOdd"/><text style="dominant-baseline: middle; font-size: 10.2px;" transform="translate(59.095550537109375,79)" y="0" x="0" id="text-entity-inputEvent-b2e3083e-e6bd-5221-a335-e18be2bb5495-attr-3-name" class="er entityLabel">description</text><rect height="22" width="24.015625" y="68" x="115.50239562988281" class="er attributeBoxOdd"/><text style="dominant-baseline: middle; font-size: 10.2px;" transform="translate(120.50239562988281,79)" y="0" x="0" id="text-entity-inputEvent-b2e3083e-e6bd-5221-a335-e18be2bb5495-attr-3-comment" class="er entityLabel"/><rect height="22" width="54.095550537109375" y="90" x="0" class="er attributeBoxEven"/><text style="dominant-baseline: middle; font-size: 10.2px;" transform="translate(5,101)" y="0" x="0" id="text-entity-inputEvent-b2e3083e-e6bd-5221-a335-e18be2bb5495-attr-4-type" class="er entityLabel">DateTime</text><rect height="22" width="61.40684509277344" y="90" x="54.095550537109375" class="er attributeBoxEven"/><text style="dominant-baseline: middle; font-size: 10.2px;" transform="translate(59.095550537109375,101)" y="0" x="0" id="text-entity-inputEvent-b2e3083e-e6bd-5221-a335-e18be2bb5495-attr-4-name" class="er entityLabel">start</text><rect height="22" width="24.015625" y="90" x="115.50239562988281" class="er attributeBoxEven"/><text style="dominant-baseline: middle; font-size: 10.2px;" transform="translate(120.50239562988281,101)" y="0" x="0" id="text-entity-inputEvent-b2e3083e-e6bd-5221-a335-e18be2bb5495-attr-4-comment" class="er entityLabel"/><rect height="22" width="54.095550537109375" y="112" x="0" class="er attributeBoxOdd"/><text style="dominant-baseline: middle; font-size: 10.2px;" transform="translate(5,123)" y="0" x="0" id="text-entity-inputEvent-b2e3083e-e6bd-5221-a335-e18be2bb5495-attr-5-type" class="er entityLabel">DateTime</text><rect height="22" width="61.40684509277344" y="112" x="54.095550537109375" class="er attributeBoxOdd"/><text style="dominant-baseline: middle; font-size: 10.2px;" transform="translate(59.095550537109375,123)" y="0" x="0" id="text-entity-inputEvent-b2e3083e-e6bd-5221-a335-e18be2bb5495-attr-5-name" class="er entityLabel">end</text><rect height="22" width="24.015625" y="112" x="115.50239562988281" class="er attributeBoxOdd"/><text style="dominant-baseline: middle; font-size: 10.2px;" transform="translate(120.50239562988281,123)" y="0" x="0" id="text-entity-inputEvent-b2e3083e-e6bd-5221-a335-e18be2bb5495-attr-5-comment" class="er entityLabel"/><rect height="22" width="54.095550537109375" y="134" x="0" class="er attributeBoxEven"/><text style="dominant-baseline: middle; font-size: 10.2px;" transform="translate(5,145)" y="0" x="0" id="text-entity-inputEvent-b2e3083e-e6bd-5221-a335-e18be2bb5495-attr-6-type" class="er entityLabel">Boolean</text><rect height="22" width="61.40684509277344" y="134" x="54.095550537109375" class="er attributeBoxEven"/><text style="dominant-baseline: middle; font-size: 10.2px;" transform="translate(59.095550537109375,145)" y="0" x="0" id="text-entity-inputEvent-b2e3083e-e6bd-5221-a335-e18be2bb5495-attr-6-name" class="er entityLabel">uploaded</text><rect height="22" width="24.015625" y="134" x="115.50239562988281" class="er attributeBoxEven"/><text style="dominant-baseline: middle; font-size: 10.2px;" transform="translate(120.50239562988281,145)" y="0" x="0" id="text-entity-inputEvent-b2e3083e-e6bd-5221-a335-e18be2bb5495-attr-6-comment" class="er entityLabel"/></g><g transform="translate(235.41278076171875,276 )" id="entity-googleEvent-8abf90a0-6121-503f-8838-198218000cbc"><rect height="156" width="139.5180206298828" y="0" x="0" class="er entityBox"/><text style="dominant-baseline: middle; text-anchor: middle; font-size: 12px;" transform="translate(69.7590103149414,12)" y="0" x="0" id="text-entity-googleEvent-8abf90a0-6121-503f-8838-198218000cbc" class="er entityLabel">googleEvent</text><rect height="22" width="54.095550537109375" y="24" x="0" class="er attributeBoxOdd"/><text style="dominant-baseline: middle; font-size: 10.2px;" transform="translate(5,35)" y="0" x="0" id="text-entity-googleEvent-8abf90a0-6121-503f-8838-198218000cbc-attr-1-type" class="er entityLabel">Int</text><rect height="22" width="61.40684509277344" y="24" x="54.095550537109375" class="er attributeBoxOdd"/><text style="dominant-baseline: middle; font-size: 10.2px;" transform="translate(59.095550537109375,35)" y="0" x="0" id="text-entity-googleEvent-8abf90a0-6121-503f-8838-198218000cbc-attr-1-name" class="er entityLabel">id</text><rect height="22" width="24.015625" y="24" x="115.50239562988281" class="er attributeBoxOdd"/><text style="dominant-baseline: middle; font-size: 10.2px;" transform="translate(120.50239562988281,35)" y="0" x="0" id="text-entity-googleEvent-8abf90a0-6121-503f-8838-198218000cbc-attr-1-comment" class="er entityLabel">🗝️</text><rect height="22" width="54.095550537109375" y="46" x="0" class="er attributeBoxEven"/><text style="dominant-baseline: middle; font-size: 10.2px;" transform="translate(5,57)" y="0" x="0" id="text-entity-googleEvent-8abf90a0-6121-503f-8838-198218000cbc-attr-2-type" class="er entityLabel">String</text><rect height="22" width="61.40684509277344" y="46" x="54.095550537109375" class="er attributeBoxEven"/><text style="dominant-baseline: middle; font-size: 10.2px;" transform="translate(59.095550537109375,57)" y="0" x="0" id="text-entity-googleEvent-8abf90a0-6121-503f-8838-198218000cbc-attr-2-name" class="er entityLabel">title</text><rect height="22" width="24.015625" y="46" x="115.50239562988281" class="er attributeBoxEven"/><text style="dominant-baseline: middle; font-size: 10.2px;" transform="translate(120.50239562988281,57)" y="0" x="0" id="text-entity-googleEvent-8abf90a0-6121-503f-8838-198218000cbc-attr-2-comment" class="er entityLabel"/><rect height="22" width="54.095550537109375" y="68" x="0" class="er attributeBoxOdd"/><text style="dominant-baseline: middle; font-size: 10.2px;" transform="translate(5,79)" y="0" x="0" id="text-entity-googleEvent-8abf90a0-6121-503f-8838-198218000cbc-attr-3-type" class="er entityLabel">String</text><rect height="22" width="61.40684509277344" y="68" x="54.095550537109375" class="er attributeBoxOdd"/><text style="dominant-baseline: middle; font-size: 10.2px;" transform="translate(59.095550537109375,79)" y="0" x="0" id="text-entity-googleEvent-8abf90a0-6121-503f-8838-198218000cbc-attr-3-name" class="er entityLabel">description</text><rect height="22" width="24.015625" y="68" x="115.50239562988281" class="er attributeBoxOdd"/><text style="dominant-baseline: middle; font-size: 10.2px;" transform="translate(120.50239562988281,79)" y="0" x="0" id="text-entity-googleEvent-8abf90a0-6121-503f-8838-198218000cbc-attr-3-comment" class="er entityLabel"/><rect height="22" width="54.095550537109375" y="90" x="0" class="er attributeBoxEven"/><text style="dominant-baseline: middle; font-size: 10.2px;" transform="translate(5,101)" y="0" x="0" id="text-entity-googleEvent-8abf90a0-6121-503f-8838-198218000cbc-attr-4-type" class="er entityLabel">DateTime</text><rect height="22" width="61.40684509277344" y="90" x="54.095550537109375" class="er attributeBoxEven"/><text style="dominant-baseline: middle; font-size: 10.2px;" transform="translate(59.095550537109375,101)" y="0" x="0" id="text-entity-googleEvent-8abf90a0-6121-503f-8838-198218000cbc-attr-4-name" class="er entityLabel">start</text><rect height="22" width="24.015625" y="90" x="115.50239562988281" class="er attributeBoxEven"/><text style="dominant-baseline: middle; font-size: 10.2px;" transform="translate(120.50239562988281,101)" y="0" x="0" id="text-entity-googleEvent-8abf90a0-6121-503f-8838-198218000cbc-attr-4-comment" class="er entityLabel"/><rect height="22" width="54.095550537109375" y="112" x="0" class="er attributeBoxOdd"/><text style="dominant-baseline: middle; font-size: 10.2px;" transform="translate(5,123)" y="0" x="0" id="text-entity-googleEvent-8abf90a0-6121-503f-8838-198218000cbc-attr-5-type" class="er entityLabel">DateTime</text><rect height="22" width="61.40684509277344" y="112" x="54.095550537109375" class="er attributeBoxOdd"/><text style="dominant-baseline: middle; font-size: 10.2px;" transform="translate(59.095550537109375,123)" y="0" x="0" id="text-entity-googleEvent-8abf90a0-6121-503f-8838-198218000cbc-attr-5-name" class="er entityLabel">end</text><rect height="22" width="24.015625" y="112" x="115.50239562988281" class="er attributeBoxOdd"/><text style="dominant-baseline: middle; font-size: 10.2px;" transform="translate(120.50239562988281,123)" y="0" x="0" id="text-entity-googleEvent-8abf90a0-6121-503f-8838-198218000cbc-attr-5-comment" class="er entityLabel"/><rect height="22" width="54.095550537109375" y="134" x="0" class="er attributeBoxEven"/><text style="dominant-baseline: middle; font-size: 10.2px;" transform="translate(5,145)" y="0" x="0" id="text-entity-googleEvent-8abf90a0-6121-503f-8838-198218000cbc-attr-6-type" class="er entityLabel">String</text><rect height="22" width="61.40684509277344" y="134" x="54.095550537109375" class="er attributeBoxEven"/><text style="dominant-baseline: middle; font-size: 10.2px;" transform="translate(59.095550537109375,145)" y="0" x="0" id="text-entity-googleEvent-8abf90a0-6121-503f-8838-198218000cbc-attr-6-name" class="er entityLabel">calEventId</text><rect height="22" width="24.015625" y="134" x="115.50239562988281" class="er attributeBoxEven"/><text style="dominant-baseline: middle; font-size: 10.2px;" transform="translate(120.50239562988281,145)" y="0" x="0" id="text-entity-googleEvent-8abf90a0-6121-503f-8838-198218000cbc-attr-6-comment" class="er entityLabel"/></g><rect height="14" width="55.66796875" y="183.24057006835938" x="141.92160034179688" class="er relationshipLabelBox"/><text style="text-anchor: middle; dominant-baseline: middle; font-size: 12px;" y="190.24057006835938" x="169.75558471679688" id="rel1" class="er relationshipLabel">enum:role</text><rect height="14" width="70.173828125" y="200.4735565185547" x="231.39227294921875" class="er relationshipLabelBox"/><text style="text-anchor: middle; dominant-baseline: middle; font-size: 12px;" y="207.4735565185547" x="266.47918701171875" id="rel2" class="er relationshipLabel">googleEvents</text><rect height="14" width="35.28125" y="215.43911743164062" x="452.8613586425781" class="er relationshipLabelBox"/><text style="text-anchor: middle; dominant-baseline: middle; font-size: 12px;" y="222.43911743164062" x="470.5019836425781" id="rel3" class="er relationshipLabel">events</text><rect height="14" width="23.958984375" y="182.4234161376953" x="515.71337890625" class="er relationshipLabelBox"/><text style="text-anchor: middle; dominant-baseline: middle; font-size: 12px;" y="189.4234161376953" x="527.69287109375" id="rel4" class="er relationshipLabel">user</text><rect height="14" width="23.958984375" y="221.2467498779297" x="357.7704162597656" class="er relationshipLabelBox"/><text style="text-anchor: middle; dominant-baseline: middle; font-size: 12px;" y="228.2467498779297" x="369.7499084472656" id="rel5" class="er relationshipLabel">user</text></svg>